<?xml version="1.0" encoding="UTF-8"?><svg id="a" xmlns="http://www.w3.org/2000/svg" width="87.41833mm" height="87.41833mm" viewBox="0 0 247.8 247.8"><g id="b"><rect id="c" width="247.8" height="247.8" rx="15.7" ry="15.7" fill="#0f1122"/></g><path d="M39.00625,36.64683c-.72656,2.80518-1.99561,4.89746-3.80713,6.27734-1.81152,1.37939-3.9834,2.06934-6.51562,2.06934-4.08789,0-7.06641-1.28027-8.93408-3.84131-1.86816-2.56055-2.80225-5.64062-2.80225-9.24072,0-3.98584,1.09863-7.10596,3.29639-9.36035,2.19727-2.25391,5.02197-3.38135,8.47412-3.38135,2.43018,0,4.5083.61914,6.23438,1.85693s2.93555,3.04883,3.62842,5.43359l-3.23633.7666c-.54541-1.7373-1.37451-3.04297-2.4873-3.91748s-2.50391-1.31201-4.17334-1.31201c-2.7251,0-4.79199.89453-6.2002,2.68311s-2.1123,4.1875-2.1123,7.19678c0,3.4751.74121,6.05859,2.22314,7.75049,1.48193,1.69238,3.41504,2.53809,5.7998,2.53809,1.95312,0,3.54053-.52783,4.76123-1.58398s2.0752-2.646,2.56348-4.76953l3.2876.83447Z" fill="#fff"/><path d="M57.47109,44.56773h-3.08301v-11.4126c0-1.47656-.31787-2.5835-.9541-3.32178-.63574-.73828-1.58398-1.10742-2.84473-1.10742-1.24902,0-2.36475.43457-3.34717,1.30322s-1.47314,2.42188-1.47314,4.65869v9.87988h-3.06641v-24.97217h3.06641v8.95996c1.45361-1.64648,3.27051-2.46973,5.45068-2.46973,1.16943,0,2.28809.23828,3.35596.71533,1.06738.47705,1.81689,1.20947,2.24854,2.19727.43115.98828.64697,2.3623.64697,4.12256v11.44678Z" fill="#fff"/><path d="M71.84805,27.0565l-1.05615,2.82764c-.76074-.44287-1.50488-.66406-2.23145-.66406-1.14697,0-2.01562.51367-2.60596,1.5415-.59082,1.02783-.88623,2.46729-.88623,4.31836v9.48779h-3.06592v-18.07324h2.79346v2.72559h.06836c.97656-2.08936,2.25391-3.13428,3.83252-3.13428,1.04492,0,2.09521.32373,3.15137.9707Z" fill="#fff"/><path d="M81.08047,26.0858c2.44141,0,4.46582.79492,6.07275,2.38477s2.41016,3.84961,2.41016,6.7793c0,3.55469-.86865,6.06738-2.60596,7.5376-1.73779,1.47119-3.69678,2.20605-5.87695,2.20605-2.28271,0-4.26416-.75488-5.94482-2.26562-1.68066-1.51025-2.521-3.90625-2.521-7.18799,0-3.17969.81152-5.55029,2.43555-7.11182s3.63428-2.34229,6.03027-2.34229ZM81.08047,42.47252c1.74854,0,3.07715-.64746,3.98584-1.94189s1.36279-2.99805,1.36279-5.11035c0-2.25928-.51367-3.96289-1.5415-5.10986s-2.29688-1.7207-3.80713-1.7207c-1.55615,0-2.8335.58203-3.83252,1.74609-.99951,1.16406-1.49902,2.89844-1.49902,5.2041,0,2.29395.50781,4.02295,1.52441,5.18652,1.01611,1.16406,2.28516,1.74609,3.80713,1.74609Z" fill="#fff"/><path d="M117.61855,44.56773h-3.06641v-11.4126c0-.84033-.05664-1.55908-.16992-2.15527s-.40625-1.12402-.87695-1.58398c-.47266-.45996-1.20703-.68994-2.20703-.68994-1.20312,0-2.24219.42041-3.11719,1.26074-.87402.84033-1.31104,2.20312-1.31104,4.08789v10.49316h-3.06592v-11.75342c0-1.56738-.27539-2.64014-.82617-3.21973-.55127-.5791-1.33154-.86865-2.34229-.86865-1.31738,0-2.39893.45459-3.24512,1.36279-.84619.90869-1.26904,2.60645-1.26904,5.09326v9.38574h-3.06592v-18.07324h2.75928v2.521h.06836c1.22656-1.95312,3.02637-2.92969,5.3999-2.92969,1.32861,0,2.42139.26416,3.27881.79199.85742.52832,1.479,1.32031,1.86523,2.37646,1.33984-2.1123,3.19727-3.16846,5.57031-3.16846,1.87305,0,3.2793.50537,4.2168,1.51611.93555,1.01074,1.4043,2.52686,1.4043,4.54785v12.41797Z" fill="#fff"/><path d="M137.36074,26.92027c-.13574-1.58984-.70996-2.78516-1.71973-3.58545-1.01172-.80078-2.45898-1.20117-4.34375-1.20117-1.7041,0-3.08984.31836-4.15625.9541-1.06836.63623-1.60156,1.56152-1.60156,2.77637,0,1.0791.41113,1.88232,1.23535,2.41064.82324.52783,2.39844,1.05322,4.72656,1.57568,2.06641.4541,3.75293.91992,5.05859,1.39648,1.30664.47705,2.4248,1.21826,3.35645,2.22314.93066,1.00488,1.39648,2.35352,1.39648,4.04541,0,2.14648-.85449,3.9292-2.56348,5.34863-1.70898,1.41992-3.9375,2.12939-6.68555,2.12939-3.50977,0-6.13574-.78369-7.87891-2.35059-1.74316-1.56738-2.66602-3.59961-2.76758-6.09814l3.13379-.27246c.14746,1.99854.91992,3.45508,2.31641,4.36914,1.39746.91406,3.08398,1.37109,5.05957,1.37109,1.85059,0,3.34766-.38037,4.48828-1.14111,1.1416-.76074,1.71191-1.79443,1.71191-3.1001,0-1.36279-.5957-2.35645-1.78809-2.98096s-3.19434-1.24072-6.00488-1.84863c-2.81055-.60693-4.83496-1.46191-6.07227-2.56348-1.23828-1.10107-1.85742-2.53223-1.85742-4.29248,0-1.99854.78418-3.65088,2.35156-4.95703,1.56641-1.30566,3.70117-1.95898,6.4043-1.95898,2.77051,0,5,.65039,6.68555,1.95068,1.68652,1.30029,2.58105,3.14844,2.68359,5.54443l-3.16895.25537Z" fill="#fff"/><path d="M152.5043,44.53355c-.9082.18164-1.6748.27246-2.2998.27246-1.33984,0-2.31641-.23584-2.92969-.70654-.61328-.47119-.98828-1.07031-1.12402-1.79736-.13672-.72656-.2041-1.7373-.2041-3.03174v-10.4082h-2.23145v-2.36768h2.23145v-4.49707l3.06543-1.85645v6.35352h3.06641v2.36768h-3.06641v10.57812c0,.90869.09375,1.55322.28125,1.93359s.66113.5708,1.42285.5708c.44238,0,.89648-.04541,1.3623-.13623l.42578,2.7251Z" fill="#fff"/><path d="M164.88808,27.0565l-1.05566,2.82764c-.76172-.44287-1.50488-.66406-2.23145-.66406-1.14746,0-2.0166.51367-2.60645,1.5415-.59082,1.02783-.88574,2.46729-.88574,4.31836v9.48779h-3.06641v-18.07324h2.79395v2.72559h.06738c.97656-2.08936,2.25488-3.13428,3.83301-3.13428,1.04492,0,2.0957.32373,3.15137.9707Z" fill="#fff"/><path d="M182.46719,36.30601h-13.54199c.125,1.99902.69531,3.52637,1.71191,4.58252s2.28516,1.58398,3.80664,1.58398c1.16992,0,2.15234-.30908,2.94727-.92822s1.40234-1.55273,1.82227-2.80225l3.15137.3916c-.51074,1.88525-1.44727,3.3335-2.81055,4.34375-1.3623,1.01123-3.06543,1.51611-5.11035,1.51611-2.71387,0-4.83496-.83154-6.36133-2.49561-1.52832-1.66309-2.29199-3.9375-2.29199-6.82178,0-2.85059.74121-5.16162,2.22363-6.93311,1.48145-1.77148,3.56836-2.65723,6.25977-2.65723,1.31738,0,2.58594.28955,3.80664.86865s2.25781,1.56445,3.10938,2.95557,1.27734,3.52344,1.27734,6.396ZM179.31582,33.78502c-.125-1.83936-.69531-3.16504-1.71191-3.97754-1.0166-.81152-2.12695-1.21777-3.33008-1.21777-1.44238,0-2.62891.48291-3.56055,1.44775-.93066.96533-1.4707,2.21484-1.61816,3.74756h10.2207Z" fill="#fff"/><path d="M201.83535,44.56773h-3.21973c-.29492-.56787-.50488-1.31152-.62988-2.23145-2.05566,1.77148-4.27539,2.65723-6.66016,2.65723-1.9082,0-3.41309-.47705-4.51367-1.43066-1.10254-.9541-1.65234-2.21436-1.65234-3.78174,0-1.49902.53027-2.73389,1.5918-3.70508,1.0625-.9707,2.9043-1.61523,5.52832-1.93311l2.86133-.42578c1.06738-.17041,1.94727-.38037,2.64062-.63037,0-.91992-.02832-1.56982-.08496-1.9502-.05762-.38037-.22461-.77539-.50293-1.18408s-.72363-.73828-1.33691-.98779c-.61328-.25-1.4375-.375-2.4707-.375-1.31738,0-2.3584.24463-3.125.73242-.7666.48828-1.29199,1.39697-1.57617,2.72559l-2.99805-.3916c.3291-1.85107,1.17578-3.24219,2.53809-4.17334,1.36328-.93115,3.23633-1.39697,5.62109-1.39697,2.16895,0,3.76172.3208,4.77832.9624s1.64062,1.4165,1.87402,2.3252c.23242.90869.34863,2.07812.34863,3.50879v4.12256c0,2.50977.04883,4.19336.14551,5.05029.0957.85791.37695,1.69482.84277,2.5127ZM197.78164,36.61265v-1.10693c-1.60156.53369-3.56055.95654-5.87695,1.26904s-3.47461,1.29199-3.47461,2.93848c0,.8291.31152,1.51318.93652,2.05225.62402.53955,1.52148.80908,2.69141.80908,1.50977,0,2.8418-.45117,3.99414-1.354s1.72949-2.43848,1.72949-4.60791Z" fill="#fff"/><path d="M230.06094,44.56773h-3.06641v-11.4126c0-.84033-.05664-1.55908-.1709-2.15527-.11328-.59619-.40527-1.12402-.87695-1.58398s-1.20703-.68994-2.20605-.68994c-1.20312,0-2.24219.42041-3.11719,1.26074-.87402.84033-1.31152,2.20312-1.31152,4.08789v10.49316h-3.06641v-11.75342c0-1.56738-.27539-2.64014-.82617-3.21973-.55078-.5791-1.33105-.86865-2.3418-.86865-1.31738,0-2.39941.45459-3.24512,1.36279-.8457.90869-1.26855,2.60645-1.26855,5.09326v9.38574h-3.06641v-18.07324h2.75977v2.521h.06738c1.22656-1.95312,3.02637-2.92969,5.40039-2.92969,1.32812,0,2.4209.26416,3.2793.79199.85645.52832,1.47852,1.32031,1.86523,2.37646,1.33984-2.1123,3.19629-3.16846,5.56934-3.16846,1.87402,0,3.2793.50537,4.2168,1.51611.93652,1.01074,1.40527,2.52686,1.40527,4.54785v12.41797Z" fill="#fff"/><path d="M39.00625,36.64683c-.72656,2.80518-1.99561,4.89746-3.80713,6.27734-1.81152,1.37939-3.9834,2.06934-6.51562,2.06934-4.08789,0-7.06641-1.28027-8.93408-3.84131-1.86816-2.56055-2.80225-5.64062-2.80225-9.24072,0-3.98584,1.09863-7.10596,3.29639-9.36035,2.19727-2.25391,5.02197-3.38135,8.47412-3.38135,2.43018,0,4.5083.61914,6.23438,1.85693s2.93555,3.04883,3.62842,5.43359l-3.23633.7666c-.54541-1.7373-1.37451-3.04297-2.4873-3.91748s-2.50391-1.31201-4.17334-1.31201c-2.7251,0-4.79199.89453-6.2002,2.68311s-2.1123,4.1875-2.1123,7.19678c0,3.4751.74121,6.05859,2.22314,7.75049,1.48193,1.69238,3.41504,2.53809,5.7998,2.53809,1.95312,0,3.54053-.52783,4.76123-1.58398s2.0752-2.646,2.56348-4.76953l3.2876.83447Z" fill="#fff"/><path d="M57.47109,44.56773h-3.08301v-11.4126c0-1.47656-.31787-2.5835-.9541-3.32178-.63574-.73828-1.58398-1.10742-2.84473-1.10742-1.24902,0-2.36475.43457-3.34717,1.30322s-1.47314,2.42188-1.47314,4.65869v9.87988h-3.06641v-24.97217h3.06641v8.95996c1.45361-1.64648,3.27051-2.46973,5.45068-2.46973,1.16943,0,2.28809.23828,3.35596.71533,1.06738.47705,1.81689,1.20947,2.24854,2.19727.43115.98828.64697,2.3623.64697,4.12256v11.44678Z" fill="#fff"/><path d="M71.84805,27.0565l-1.05615,2.82764c-.76074-.44287-1.50488-.66406-2.23145-.66406-1.14697,0-2.01562.51367-2.60596,1.5415-.59082,1.02783-.88623,2.46729-.88623,4.31836v9.48779h-3.06592v-18.07324h2.79346v2.72559h.06836c.97656-2.08936,2.25391-3.13428,3.83252-3.13428,1.04492,0,2.09521.32373,3.15137.9707Z" fill="#fff"/><path d="M81.08047,26.0858c2.44141,0,4.46582.79492,6.07275,2.38477s2.41016,3.84961,2.41016,6.7793c0,3.55469-.86865,6.06738-2.60596,7.5376-1.73779,1.47119-3.69678,2.20605-5.87695,2.20605-2.28271,0-4.26416-.75488-5.94482-2.26562-1.68066-1.51025-2.521-3.90625-2.521-7.18799,0-3.17969.81152-5.55029,2.43555-7.11182s3.63428-2.34229,6.03027-2.34229ZM81.08047,42.47252c1.74854,0,3.07715-.64746,3.98584-1.94189s1.36279-2.99805,1.36279-5.11035c0-2.25928-.51367-3.96289-1.5415-5.10986s-2.29688-1.7207-3.80713-1.7207c-1.55615,0-2.8335.58203-3.83252,1.74609-.99951,1.16406-1.49902,2.89844-1.49902,5.2041,0,2.29395.50781,4.02295,1.52441,5.18652,1.01611,1.16406,2.28516,1.74609,3.80713,1.74609Z" fill="#fff"/><path d="M117.61855,44.56773h-3.06641v-11.4126c0-.84033-.05664-1.55908-.16992-2.15527s-.40625-1.12402-.87695-1.58398c-.47266-.45996-1.20703-.68994-2.20703-.68994-1.20312,0-2.24219.42041-3.11719,1.26074-.87402.84033-1.31104,2.20312-1.31104,4.08789v10.49316h-3.06592v-11.75342c0-1.56738-.27539-2.64014-.82617-3.21973-.55127-.5791-1.33154-.86865-2.34229-.86865-1.31738,0-2.39893.45459-3.24512,1.36279-.84619.90869-1.26904,2.60645-1.26904,5.09326v9.38574h-3.06592v-18.07324h2.75928v2.521h.06836c1.22656-1.95312,3.02637-2.92969,5.3999-2.92969,1.32861,0,2.42139.26416,3.27881.79199.85742.52832,1.479,1.32031,1.86523,2.37646,1.33984-2.1123,3.19727-3.16846,5.57031-3.16846,1.87305,0,3.2793.50537,4.2168,1.51611.93555,1.01074,1.4043,2.52686,1.4043,4.54785v12.41797Z" fill="#fff"/><path d="M137.36074,26.92027c-.13574-1.58984-.70996-2.78516-1.71973-3.58545-1.01172-.80078-2.45898-1.20117-4.34375-1.20117-1.7041,0-3.08984.31836-4.15625.9541-1.06836.63623-1.60156,1.56152-1.60156,2.77637,0,1.0791.41113,1.88232,1.23535,2.41064.82324.52783,2.39844,1.05322,4.72656,1.57568,2.06641.4541,3.75293.91992,5.05859,1.39648,1.30664.47705,2.4248,1.21826,3.35645,2.22314.93066,1.00488,1.39648,2.35352,1.39648,4.04541,0,2.14648-.85449,3.9292-2.56348,5.34863-1.70898,1.41992-3.9375,2.12939-6.68555,2.12939-3.50977,0-6.13574-.78369-7.87891-2.35059-1.74316-1.56738-2.66602-3.59961-2.76758-6.09814l3.13379-.27246c.14746,1.99854.91992,3.45508,2.31641,4.36914,1.39746.91406,3.08398,1.37109,5.05957,1.37109,1.85059,0,3.34766-.38037,4.48828-1.14111,1.1416-.76074,1.71191-1.79443,1.71191-3.1001,0-1.36279-.5957-2.35645-1.78809-2.98096s-3.19434-1.24072-6.00488-1.84863c-2.81055-.60693-4.83496-1.46191-6.07227-2.56348-1.23828-1.10107-1.85742-2.53223-1.85742-4.29248,0-1.99854.78418-3.65088,2.35156-4.95703,1.56641-1.30566,3.70117-1.95898,6.4043-1.95898,2.77051,0,5,.65039,6.68555,1.95068,1.68652,1.30029,2.58105,3.14844,2.68359,5.54443l-3.16895.25537Z" fill="#fff"/><path d="M152.5043,44.53355c-.9082.18164-1.6748.27246-2.2998.27246-1.33984,0-2.31641-.23584-2.92969-.70654-.61328-.47119-.98828-1.07031-1.12402-1.79736-.13672-.72656-.2041-1.7373-.2041-3.03174v-10.4082h-2.23145v-2.36768h2.23145v-4.49707l3.06543-1.85645v6.35352h3.06641v2.36768h-3.06641v10.57812c0,.90869.09375,1.55322.28125,1.93359s.66113.5708,1.42285.5708c.44238,0,.89648-.04541,1.3623-.13623l.42578,2.7251Z" fill="#fff"/><path d="M164.88808,27.0565l-1.05566,2.82764c-.76172-.44287-1.50488-.66406-2.23145-.66406-1.14746,0-2.0166.51367-2.60645,1.5415-.59082,1.02783-.88574,2.46729-.88574,4.31836v9.48779h-3.06641v-18.07324h2.79395v2.72559h.06738c.97656-2.08936,2.25488-3.13428,3.83301-3.13428,1.04492,0,2.0957.32373,3.15137.9707Z" fill="#fff"/><path d="M182.46719,36.30601h-13.54199c.125,1.99902.69531,3.52637,1.71191,4.58252s2.28516,1.58398,3.80664,1.58398c1.16992,0,2.15234-.30908,2.94727-.92822s1.40234-1.55273,1.82227-2.80225l3.15137.3916c-.51074,1.88525-1.44727,3.3335-2.81055,4.34375-1.3623,1.01123-3.06543,1.51611-5.11035,1.51611-2.71387,0-4.83496-.83154-6.36133-2.49561-1.52832-1.66309-2.29199-3.9375-2.29199-6.82178,0-2.85059.74121-5.16162,2.22363-6.93311,1.48145-1.77148,3.56836-2.65723,6.25977-2.65723,1.31738,0,2.58594.28955,3.80664.86865s2.25781,1.56445,3.10938,2.95557,1.27734,3.52344,1.27734,6.396ZM179.31582,33.78502c-.125-1.83936-.69531-3.16504-1.71191-3.97754-1.0166-.81152-2.12695-1.21777-3.33008-1.21777-1.44238,0-2.62891.48291-3.56055,1.44775-.93066.96533-1.4707,2.21484-1.61816,3.74756h10.2207Z" fill="#fff"/><path d="M201.83535,44.56773h-3.21973c-.29492-.56787-.50488-1.31152-.62988-2.23145-2.05566,1.77148-4.27539,2.65723-6.66016,2.65723-1.9082,0-3.41309-.47705-4.51367-1.43066-1.10254-.9541-1.65234-2.21436-1.65234-3.78174,0-1.49902.53027-2.73389,1.5918-3.70508,1.0625-.9707,2.9043-1.61523,5.52832-1.93311l2.86133-.42578c1.06738-.17041,1.94727-.38037,2.64062-.63037,0-.91992-.02832-1.56982-.08496-1.9502-.05762-.38037-.22461-.77539-.50293-1.18408s-.72363-.73828-1.33691-.98779c-.61328-.25-1.4375-.375-2.4707-.375-1.31738,0-2.3584.24463-3.125.73242-.7666.48828-1.29199,1.39697-1.57617,2.72559l-2.99805-.3916c.3291-1.85107,1.17578-3.24219,2.53809-4.17334,1.36328-.93115,3.23633-1.39697,5.62109-1.39697,2.16895,0,3.76172.3208,4.77832.9624s1.64062,1.4165,1.87402,2.3252c.23242.90869.34863,2.07812.34863,3.50879v4.12256c0,2.50977.04883,4.19336.14551,5.05029.0957.85791.37695,1.69482.84277,2.5127ZM197.78164,36.61265v-1.10693c-1.60156.53369-3.56055.95654-5.87695,1.26904s-3.47461,1.29199-3.47461,2.93848c0,.8291.31152,1.51318.93652,2.05225.62402.53955,1.52148.80908,2.69141.80908,1.50977,0,2.8418-.45117,3.99414-1.354s1.72949-2.43848,1.72949-4.60791Z" fill="#fff"/><path d="M230.06094,44.56773h-3.06641v-11.4126c0-.84033-.05664-1.55908-.1709-2.15527-.11328-.59619-.40527-1.12402-.87695-1.58398s-1.20703-.68994-2.20605-.68994c-1.20312,0-2.24219.42041-3.11719,1.26074-.87402.84033-1.31152,2.20312-1.31152,4.08789v10.49316h-3.06641v-11.75342c0-1.56738-.27539-2.64014-.82617-3.21973-.55078-.5791-1.33105-.86865-2.3418-.86865-1.31738,0-2.39941.45459-3.24512,1.36279-.8457.90869-1.26855,2.60645-1.26855,5.09326v9.38574h-3.06641v-18.07324h2.75977v2.521h.06738c1.22656-1.95312,3.02637-2.92969,5.40039-2.92969,1.32812,0,2.4209.26416,3.2793.79199.85645.52832,1.47852,1.32031,1.86523,2.37646,1.33984-2.1123,3.19629-3.16846,5.56934-3.16846,1.87402,0,3.2793.50537,4.2168,1.51611.93652,1.01074,1.40527,2.52686,1.40527,4.54785v12.41797Z" fill="#fff"/><path d="M17.51944,199.96024c-.73608-.80633-.78627-2.45308-.01009-3.22798.37135-.37074,6.7646-1.90067,8.24661-2.55411,17.06508-7.52419,18.92082-34.9785,23.45225-50.72011.89226-3.09961,2.81542-9.64472,6.27023-10.64636,6.84287-1.98393,8.9092,10.55846,9.97754,15.17704,1.93658,8.37206,3.06372,20.48235,6.58837,28.0254.55696,1.19195,1.35161,3.54218,2.78759,2.1746,2.37558-2.26242,5.55716-14.54892,6.49862-18.22357,4.07235-15.89494,6.14675-38.05384,12.91731-52.40642,4.04057-8.56541,10.5944-11.74041,15.97391-1.99353,6.90637,12.51332,9.81978,37.41416,13.26453,52.0592,1.95525,8.31256,4.59798,20.80039,10.15026,27.3263,10.06397,11.82877,34.58413,9.56517,48.65984,11.19855,16.40819.93438,34.27043-1.28059,50.50944-.02018,1.18711.09214,2.45423.22322,3.09046,1.33493.93965,1.6419-.43809,3.50801-2.30907,3.36915-25.31176-.56982-51.37573,1.18704-76.49234-1.86422-20.90367-2.53946-28.69795-7.42736-34.90552-27.81568-4.33371-14.23378-6.48465-29.47037-9.88708-43.98548-1.4719-6.27928-3.24262-14.73274-6.59595-20.2102-2.30535-3.76565-3.92628-3.21369-6.0738.26025-6.09213,9.85498-9.07979,32.94129-11.79412,44.94123-1.63974,7.24922-4.96671,23.84137-9.62992,29.14791-2.326,2.64689-5.91873,2.97828-8.33345.25972-4.85555-5.46651-7.625-28.3349-9.83105-36.49414-.31266-1.15641-2.05214-7.70877-3.40924-7.47735-1.6407,1.84455-2.27441,4.62482-2.94916,6.95693-5.25464,18.16143-6.75714,46.71266-27.59647,54.38351-1.77828.65458-7.19467,2.53083-8.56971,1.02458Z" fill="#fff"/></svg>